<?xml version="1.0" encoding="utf-8"?>
<svg viewBox="179.562 0 644.055 666.144" xmlns="http://www.w3.org/2000/svg" fill="#ffffff">
  <path d="M 481.516 0 C 274.718 0 185.456 184.072 185.456 184.072 L 211.731 202.882 C 211.731 202.882 178.666 265.761 179.581 346.412 C 179.581 511.052 310.639 666.144 503.567 666.144 C 678.835 666.144 823.617 523.487 823.617 346.817 C 823.617 116.399 644.935 0 481.517 0 L 481.516 0 Z M 483.31 56.168 C 644.881 56.168 770.256 186.368 770.256 337.731 C 770.256 498.186 649.576 609.773 508.949 609.773 C 405.451 609.773 312.086 530.957 312.086 422.894 C 312.086 360.48 345.26 316.966 382.434 293.775 L 387.874 299.678 C 377.701 307.638 348.693 354.235 348.693 400.034 C 348.693 485.056 415.367 543.94 499.371 543.94 C 606.377 543.94 677.742 452.673 677.742 346.702 C 677.742 223.406 568.909 118.731 437.936 118.731 C 365.494 118.731 304.01 149.885 268.68 177.388 L 263.182 172.411 C 309.403 101.144 389.446 56.168 483.31 56.168 Z M 435.1 174.118 C 518.68 174.118 600.28 229.411 620.648 307.896 L 613.24 310.703 C 576.669 262.409 516.744 222.386 445.98 222.386 C 315.768 222.386 247.384 340.709 257.423 439.533 L 249.755 442.341 C 249.755 442.341 235.373 410.607 235.373 372.977 C 235.373 264.007 324.861 174.117 435.1 174.117 L 435.1 174.118 Z M 490.342 310.876 C 529.912 310.876 561.558 342.949 561.558 381.022 C 561.558 412.528 541.33 431.2 541.33 431.2 L 565.29 447.954 C 565.29 447.954 541.531 485.255 493.033 485.255 C 446.642 485.255 405.613 447.811 405.613 397.458 C 405.613 345.574 450.242 310.876 490.343 310.876 L 490.342 310.876 Z"/>
</svg>